<svg version="1.2" xmlns="http://www.w3.org/2000/svg" viewBox="0 0 1039 662" width="1039" height="662">
	<title>Screenshot 2025-05-27 222519</title>
	<style>
		.s0 { fill: #ededec } 
		.s1 { fill: #244398 } 
		.s2 { fill: #1e2326 } 
		.s3 { fill: #61a83c } 
		.s4 { opacity: 1;fill: #ee5246 } 
		.s5 { fill: #686e73 } 
		.s6 { fill: #b2b6c5 } 
		.s7 { fill: #8996b4 } 
		.s8 { fill: #cc827f } 
		.s9 { fill: #9dc791 } 
	</style>
	<g id="Background">
		<path id="Path 0" class="s0" d="m-1 331v331h1039v-662h-1039z"/>
		<path id="Path 1" class="s1" d="m241.5 30c-4.2 0.3-8.2 1.3-10 2.4-1.7 1-3.8 2.8-4.7 4-1.6 2-1.8 12.3-1.8 168.4v166.2c4.7 7.8 6.9 9.8 10 11.3 3.9 1.9 6.1 2.2 15.5 2 8.1-0.1 13.7-0.8 21.3-2.7 5.6-1.4 13.5-4.2 17.4-6.1 4-1.9 10-5.6 13.2-8.2 3.3-2.6 8.1-7.5 10.6-10.8 3.8-4.9 5.4-6.2 8.6-6.8 2.1-0.5 8-2.9 12.9-5.5 6.7-3.5 10.9-6.5 16.5-12.2 4.5-4.4 9.1-10.3 11.3-14.2 2-3.8 4.8-10.5 6.1-15 1.3-4.6 2.9-12.9 3.5-18.5 0.6-5.7 0.9-10.9 0.6-11.5-0.3-0.7 0.3-2.5 1.2-3.9 1-1.5 3.8-5.5 6.2-9 2.5-3.5 6-10 7.7-14.4 1.8-4.4 4-12 4.9-17 0.8-4.9 1.5-13.3 1.5-18.5 0-5.2-0.7-13.8-1.6-19-0.9-5.2-3.2-13.5-5.2-18.5-1.9-4.9-4.9-11.2-6.6-14-1.6-2.7-4.9-7.5-7.2-10.5-2.3-3-6.3-7.5-8.8-10-3.1-3-4.6-5.3-4.6-7 0-1.4-1.3-7.7-2.8-14-1.6-6.3-4.5-14.6-6.4-18.5-2-3.8-5.7-10.1-8.3-14-2.6-3.8-7.4-9.9-10.5-13.5-3.1-3.6-8.8-9-12.6-12.1-3.8-3.1-10-7.8-13.9-10.3-3.9-2.6-10.6-6.5-15-8.6-4.4-2.1-12.9-5.2-19-6.8-6.1-1.7-13.7-3.2-17-3.4-3.3-0.2-9.2-0.1-13 0.2zm203.5 150.8c0 58.2 0 58.8 2.3 67.2 1.3 4.7 3.8 11.2 5.7 14.5 1.8 3.3 6.4 9 10.2 12.7 5 5 9 7.8 15.1 10.7 4.5 2.2 12 4.8 16.7 5.8 5.8 1.2 12.5 1.8 21 1.7 9.3 0 14.8-0.6 21.3-2.2 4.8-1.2 11.1-3.4 14-4.8 2.8-1.5 7.5-4.4 10.2-6.4 2.8-2 6.9-5.9 9.3-8.6 2.3-2.7 5.8-8 7.7-11.9 1.9-3.9 4.1-10.5 5-14.8 1.2-6.4 1.5-17.5 1.5-65.2v-57.5h-35.1l-0.4 119.5c-4.7 9-7.8 13-10 14.8-2.2 1.7-6.8 4.2-10.2 5.4-4.5 1.6-8.5 2.3-13.8 2.3-5.3 0-9.4-0.7-13.7-2.3-3.5-1.2-8.1-3.6-10.3-5.3-2.2-1.8-5.5-5.9-7.5-9.5l-3.5-6.4-0.5-118.5h-35zm163-43.3v15.5h49v139h36v-139h48v-31h-133zm157 69.5v85h34v-170h-34zm111.3-78.7c-1.2 3.4-4.4 13-7.3 21.2-2.8 8.3-5.9 17.3-7 20-1 2.8-8.7 24.6-17 48.5-8.3 24-17.3 49.6-19.9 57-2.7 7.5-5.1 14.3-5.5 15.3-0.6 1.6 0.6 1.7 17.6 1.5l18.2-0.3 12.1-35.5 64.9 0.5 12.1 35.6 36.5-0.1c-8.4-23.6-13.4-37.6-16.5-46.5-3.2-8.8-6.8-19.1-8.1-23-1.3-3.8-4.1-11.9-6.2-18-2.1-6-6.2-17.7-9.1-26-2.8-8.2-8.4-24.2-12.5-35.5l-7.3-20.5-42.9-0.5z"/>
		<path id="Path 2" class="s2" d="m733.7 427c-0.9 1.6-1.7 3.2-1.7 3.5 0 0.3 0.6 0.5 1.2 0.5 0.7 0.1 3.1-1.5 5.3-3.5l4-3.5c-6.5 0-7.5 0.5-8.8 3zm-620 9.7l-2.7 0.3c0 24-0.4 30.9-0.9 30.8-0.4-0.2-4.8-6.2-9.6-13.3-4.9-7.1-9.5-14-10.4-15.2-1.2-1.6-2.6-2.2-5.4-2.3h-3.7v43h7c0-24.8 0.3-32 0.7-32 0.5 0.1 3.5 4.2 6.8 9.2 3.3 5.1 8.1 12.3 10.7 16 4.3 6 5.2 6.8 8 6.8h3.3c-0.4-33.7-0.6-43.5-0.8-43.5-0.1 0-1.4 0.1-3 0.2zm160.4 0.4c-1.9 0.4-4.5 2.1-5.8 3.6-1.6 1.8-2.5 4.2-2.6 6.8-0.1 2.5 0.5 5.2 1.5 6.8 1 1.5 3.7 3.5 6 4.6 2.4 1 5.9 2.2 7.8 2.6 1.9 0.4 4.5 1.3 5.7 2.1 1.7 1 2.3 2.4 2.3 4.9 0 2.7-0.6 3.9-2.8 5.2-1.9 1.2-3.9 1.5-7.2 1.1-3.2-0.5-5.1-1.4-6.5-3.2-1.4-1.8-3-2.6-5.3-2.6-1.7 0-3.2 0.4-3.2 1 0 0.6 0.6 2.2 1.2 3.6 0.7 1.4 2.9 3.5 4.8 4.7 2.6 1.6 5.1 2.1 10 2.1 4.1 0 7.7-0.7 9.7-1.7 1.8-0.9 4-2.7 4.8-3.9 0.8-1.3 1.5-4.3 1.5-6.8 0-2.5-0.7-5.5-1.5-6.8-0.8-1.2-2.7-2.8-4.3-3.6-1.5-0.7-5.2-1.9-8.2-2.5-3-0.7-6.3-2-7.3-2.9-1-0.9-1.8-2.8-1.8-4.2 0-1.4 1-3.4 2.3-4.4 1.4-1.3 3.6-2 5.8-1.9 2.4 0.1 4.2 0.9 5.7 2.7 1.5 1.7 3.3 2.6 5.3 2.6 2.2 0 3-0.5 3-1.8 0.1-0.9-1-2.9-2.2-4.3-1.3-1.4-4.1-3.1-6.3-3.7-2.2-0.7-5.1-1.2-6.5-1.1-1.4 0-4 0.5-5.9 1zm284.9-0.2c-1.4 0.4-3.8 1.6-5.4 2.7-1.6 1-4 3.9-5.5 6.4-2.1 3.7-2.6 5.8-2.6 12 0 6.5 0.4 8.2 3 12.9 2.2 4.1 4.2 6.1 7.5 7.9 3.8 2 5.4 2.3 11 1.8 4.2-0.3 7.4-1.2 9-2.4 1.4-1 3.5-3.4 4.8-5.3 1.2-1.9 2.2-4 2.2-4.7 0-0.7-0.9-1-2.3-0.8-1.2 0.3-3 0.5-4 0.5-0.9 0.1-1.7 0.8-1.7 1.6 0 0.8-1.2 2.4-2.8 3.5-1.8 1.4-4.2 2.1-7.5 2-3.7 0-5.3-0.6-7.6-2.8-1.5-1.5-3.4-4.7-4.1-7.2-0.7-2.6-1-6.6-0.6-9.5 0.4-2.8 1.5-6.4 2.5-8 1-1.6 3.7-3.8 6-4.8 4-1.6 4.3-1.6 8.6 0.3 2.6 1.2 4.7 2.8 5 4 0.4 1.6 1.3 2 4.5 2h4c-1.9-4.9-3.7-7.4-5.3-8.7-1.5-1.3-4.4-2.7-6.5-3.3-2-0.5-5.1-1-6.7-0.9-1.7 0-4.1 0.4-5.5 0.8zm92.2 0.2c-2.3 0.5-5.5 1.9-7.1 3.1-1.6 1.3-3.5 3.4-4.4 4.8-0.8 1.4-2 4.9-2.6 7.7-0.8 3.7-0.8 6.8-0.1 10.3 0.5 2.7 1.6 6.2 2.4 7.7 0.8 1.6 2.7 4 4.3 5.4 1.5 1.5 4.4 3.1 6.3 3.8 1.9 0.6 5 1.1 6.7 1.1 1.8 0 5-0.7 7-1.6 2.1-0.8 4.9-2.5 6.1-3.7 1.3-1.2 3.3-3.9 4.3-6 1.4-2.6 1.9-5.9 1.9-11.5 0.1-7.1-0.2-8.1-3.2-12.7-1.8-2.7-4.7-5.7-6.3-6.6-1.7-0.9-4.8-1.9-7-2.2-2.2-0.3-5.9-0.1-8.3 0.4zm76.6 0.2c-2.1 0.7-5.4 2.7-7.3 4.4-2 1.9-3.9 4.9-4.5 7-0.5 2.1-1 6.3-1 9.3 0 3 0.5 7.1 1.1 9 0.7 1.9 2.6 5 4.3 6.9 1.7 1.8 4.6 4 6.3 4.7 1.8 0.8 5.7 1.4 8.5 1.4 4 0 6.3-0.6 9.3-2.5 2.2-1.4 5.1-4.2 6.5-6.2 1.9-2.8 2.6-5.3 2.9-10.2 0.2-3.6 0.1-8.2-0.2-10.1-0.4-2-2.3-5.4-4.5-8-2.9-3.4-5-4.8-8.5-5.8-2.6-0.6-5.7-1.2-7-1.1-1.2 0-3.9 0.6-5.9 1.2zm46.7-0.1c-1.7 0.6-4.5 2.5-6.3 4.2-2.1 2-3.8 5-4.9 8.6-1 3.7-1.4 7.3-0.9 11 0.3 3 1.4 7 2.3 8.9 1 1.9 3.5 4.9 5.7 6.5 3 2.4 5 3.2 9.5 3.5 3.1 0.2 6.8 0.1 8.3-0.3 1.6-0.3 4.4-2.1 6.5-3.9 2-1.7 4.2-4.7 5-6.5 0.7-1.7 1.3-5 1.3-7.2v-4c-19 0-19 0-19 2.5 0 2.4 0.2 2.5 6.2 2.5h6.3c-1.2 5-2.4 7.3-3.3 8.3-0.9 1-3.3 2.2-5.2 2.7-2.2 0.6-4.9 0.6-7.3 0-2.1-0.6-4.6-2.2-5.7-3.8-1.2-1.5-2.6-4.3-3.2-6.2-0.6-1.9-0.9-5.5-0.6-8 0.2-2.5 1.1-5.9 1.9-7.5 0.8-1.8 3.2-3.9 5.9-5.3 3.9-2.1 4.9-2.2 8-1.2 1.9 0.6 4.5 2.1 5.8 3.3 1.2 1.2 2.2 2.8 2.2 3.4 0 0.8 1.5 1.3 4 1.3 3.3 0 3.9-0.3 3.5-1.8-0.3-0.9-2-3.5-3.8-5.7-2.4-2.9-4.6-4.3-8-5.3-2.6-0.6-6.2-1.2-8-1.1-1.7 0-4.6 0.5-6.2 1.1zm64 0.3c-2.2 0.8-5.2 2.7-6.8 4.2-1.5 1.6-3.4 4.8-4.2 7.3-0.9 2.5-1.5 6.6-1.5 9.2 0 2.7 0.9 7.3 2 10.3 1.5 4.2 3 6.2 6.2 8.5 2.4 1.6 6.1 3.2 8.3 3.5 2.2 0.4 5.9 0.1 8.2-0.4 2.4-0.6 5.9-2.6 7.8-4.4 1.9-1.7 3.7-4.4 4-6 0.4-2.4 0.2-2.7-2.3-2.7-1.9 0-3.6 1.1-5.7 3.6-2.2 2.6-4 3.7-7 4.1q-4 0.5-7.3-1.1c-1.9-1-4-3.3-5.3-5.9-1.7-3.3-2.1-5.6-1.8-10.8 0.3-5.1 1-7.3 3-10 1.6-2.1 4.1-3.9 6.5-4.6 3.1-0.9 4.5-0.9 6.9 0.1 1.6 0.7 4 2.7 5.2 4.4 1.8 2.6 2.9 3.1 5.3 2.9 2.7-0.2 3-0.5 2.5-2.7-0.3-1.4-2.1-4-4-5.8-1.9-1.7-5.2-3.6-7.3-4.2-2-0.5-4.8-1-6.2-1-1.4 0.1-4.3 0.7-6.5 1.5zm-800.3 17.6l0.3 18.1c5.8 5.4 8.5 6.7 11.5 7.2 2.5 0.5 6.4 0.5 8.7 0.2 2.9-0.4 5.5-1.7 8-4l3.8-3.4 0.3-36.2h-6.8c0 32.7 0 33-2.5 35.5-1.9 2-3.4 2.5-7.2 2.5-3.4 0-5.4-0.5-7.1-2-2.1-1.9-2.2-2.6-2.2-19v-17h-7.1zm89.8 3.9v22h7v-44h-7zm15.5-19.7c0.4 1.2 3.2 9 6.2 17.2 3 8.3 6.2 17.2 7.1 19.8 1.5 4.4 2 4.8 4.9 4.7 2.8 0 3.5-0.5 4.8-3.7 0.9-2.1 4.1-10.8 7.1-19.3 3.1-8.5 6.2-16.7 7-18.2l1.4-2.8h-7.5c-11.5 34-12.5 36.2-13.3 34-0.5-1.4-3.4-9.6-6.3-18.3l-5.4-15.7c-6.4 0-6.6 0.2-6 2.3zm45.5 19.7v22h28v-6h-21v-14c19 0 19 0 19-2.5 0-2.5 0-2.5-9.5-2.5h-9.5l0.5-13.5h20l0.5-5.5h-28zm37-0.5v21.5h7c0-14.7 0.3-16.1 1.7-16.6 1-0.3 2.7-0.4 3.8 0 1.1 0.3 4 4.1 6.6 8.4 4.5 7.6 4.6 7.7 9 8.1 4.2 0.3 4.3 0.2 2.8-1.5-0.8-1.1-3.2-4.7-5.2-8.1-2-3.5-3.7-6.6-3.7-7 0-0.4 1-1.2 2.2-1.8 1.2-0.5 3.3-2.6 4.5-4.5 1.3-1.9 2.3-4.9 2.3-6.7 0-1.8-0.7-4.7-1.5-6.5-0.8-2-2.8-4-5-5-2.7-1.4-6-1.8-14-1.8h-10.5zm79 0v21.5h7v-43h-7zm17 0.3v21.7c17.6-0.9 22.6-1.7 24.5-2.7 1.6-0.9 4.2-2.9 5.7-4.4 1.5-1.6 3.2-4.5 3.8-6.4 0.5-1.9 1-6 1-9 0-3-0.5-7.1-1.1-9-0.7-1.9-2.6-5-4.3-6.8-1.7-1.8-4.7-3.7-6.6-4.2-1.9-0.5-7.9-1-13.3-1h-9.7zm53.4-18c-0.9 2.1-2.7 6.9-4 10.8-1.2 3.8-3.8 11.2-5.7 16.5-1.9 5.2-3.8 10.3-4.1 11.2-0.5 1.5 0 1.8 2.6 1.8 3.1 0 3.4-0.3 5.3-5.7l2.1-5.8h17.7c2.1 7.3 3 9.7 3.4 9.9 0.5 0.2 2.1 0.5 3.8 0.7 2.5 0.3 2.9 0.1 2.7-1.6-0.2-1.1-1.9-6.1-3.7-11-1.8-5-5-13.9-7.1-19.8l-3.9-10.8c-7.1 0.1-7.7 0.5-9.1 3.8zm31.7 18.2l-0.1 22.1c11.2 0 17-0.5 20-1.1 3-0.5 7-2.1 8.7-3.5 1.8-1.3 4.3-4.3 5.4-6.7 1.7-3.2 2.2-5.9 2.1-11.2 0-5.6-0.6-8-2.6-11.5-1.4-2.5-4.2-5.7-6.3-7-3.3-2.3-4.9-2.6-15.4-2.9l-11.7-0.3zm59.9-19.2c0 2.8 0 2.8 6.5 2.5l6.5-0.2v38h7l0.5-37.5 12.5 0.5v-6h-33zm42 19.2v22h28v-6h-21v-14l19 0.5v-5.5h-19v-13l20.5-0.5 0.5-5.5h-28zm83 0v22h7l0.5-32.5c10 14.7 14.4 21.3 16.3 24 1.9 2.8 4.2 5.8 5.1 6.8 0.9 1 2.8 1.8 4.4 1.7h2.7v-44h-7c0 24-0.3 31-0.7 31-0.5 0-2.2-2.2-3.9-4.8-1.6-2.6-6.4-9.5-10.5-15.5-6.9-10-7.6-10.7-10.6-10.7h-3.3zm94-0.5v21.5h25l-0.5-5.5-18.5-0.5v-37h-6zm124 0v21.5h6v-43h-6zm71.4-17.7c-0.8 2-4.3 11.7-7.7 21.5l-6.2 17.7c6.4-0.5 6.8-0.9 8.4-5.5l1.7-5h17.6c3.7 10.2 4 10.5 7.3 10.5 2.9 0 3.4-0.3 2.9-1.7-0.4-1-1.4-4.3-2.4-7.3-1-3-2.4-7.1-3.2-9-0.8-1.9-3.1-8.3-5.1-14.2l-3.7-10.8c-7.6 0-8.1 0.3-9.6 3.8zm47.7 17.6l-0.1 21.6c13.6 0 19.3-0.5 21.5-1.1 2.2-0.6 5.6-2.8 7.6-4.8 2-2 4.2-5.4 4.8-7.6 0.6-2.2 1.1-6.2 1-9 0-2.7-0.8-6.9-1.7-9.3-1.1-3-3.1-5.4-6-7.5-4.2-3-4.9-3.2-15.7-3.5l-11.3-0.4zm43.9 0.6v22h28v-6c-15.9 0.1-20.7-0.1-21-0.4-0.3-0.2-0.4-3.4-0.2-7l0.2-6.6c19 0 19 0 19-2.5 0-2.5-0.1-2.5-9.6-2.7l-9.6-0.3-0.3-12.5h20.5v-6h-27zm-912.2 79.7l0.2 24.3h8c0.1-32.8 0.2-33.4 1.8-31.3 0.9 1.2 6 8.7 11.2 16.8l9.5 14.6 8.5-0.1v-49l-8.5 0.5c0 25.2-0.3 32.5-0.7 32.5-0.4 0-1-0.8-1.4-1.7-0.3-1-3.4-6.1-6.8-11.3-3.5-5.2-7.8-11.7-9.5-14.5-3.1-4.8-3.4-5-7.8-5.1h-4.7zm49.5-23.8c-0.3 0.2-0.5 1.9-0.4 3.7l0.1 3.4 14.5 0.5 0.5 40.5h8.5v-40.5l14.5-0.5v-7.5c-28.8 0-37.4 0.2-37.7 0.4zm47.7 23.6v24.5h32v-8h-24c0.5-11 0.9-12.6 2-12.7 0.9 0 5.7-0.1 10.8-0.2l9.2-0.1v-7h-22l0.5-12.5 23.5-0.5v-8h-32zm84 0.2v24.3h9l-0.6-48.3-8.4-0.2zm33.5-23.7c-1.6 0.5-4.7 2.3-6.9 4.2-2.2 1.8-5 5.5-6.2 8.2-1.6 3.5-2.3 6.9-2.3 11 0 4.2 0.7 7.6 2.3 11 1.2 2.8 3.8 6.3 5.7 7.9 1.9 1.6 4.8 3.6 6.4 4.4 2.1 1 5.2 1.4 10.2 1.1 6.2-0.3 7.7-0.8 11-3.4 2.1-1.7 4.8-5.1 6.1-7.5 1.4-2.8 2.2-6.3 2.2-9.2v-4.8h-20v7c9.8 0 11 0.4 11 1.5 0 0.9-1.5 3.2-3.4 5.3-3.1 3.4-3.9 3.7-8.4 3.7-4.2 0-5.6-0.5-8.2-3-1.8-1.6-3.8-4.4-4.6-6.2-0.7-1.8-1.4-5.3-1.4-7.8 0-2.4 0.6-5.9 1.4-7.7 0.7-1.8 2.7-4.5 4.5-6 2.6-2.3 4.1-2.8 8.4-2.7 4.6 0 5.6 0.4 8.2 3.3 2.3 2.6 4 3.4 7.3 3.7 2.9 0.3 4.2 0 4.2-0.8 0-0.7-0.6-2.5-1.4-4-0.7-1.5-2.4-3.8-3.7-5-1.3-1.2-4.1-2.9-6.1-3.7-2.1-0.9-5.9-1.5-8.5-1.5-2.6 0.1-6.1 0.5-7.8 1zm112.3 15.7c0.1 8.9-0.1 16.2-0.5 16.2-0.4 0-3.1-3.7-6-8.3-2.8-4.5-7.3-11.6-10-15.9l-4.8-7.7-10.5-0.1v48h10c-0.4-24.8-0.2-32 0-32 0.3 0 1.2 1.1 2 2.5 0.9 1.3 5.6 8.5 10.5 16l9 13.5h8.5l-0.5-47.8-8-0.7zm32.8-15.3c-2.3 0.8-5.8 3.5-8.3 6.3-3.1 3.4-4.6 6.2-5.4 9.8-0.6 2.7-0.8 7.4-0.4 10.5 0.4 3.5 1.7 7.1 3.6 10.2 1.6 2.6 4.9 6 7.2 7.5 3.5 2.4 5.2 2.8 11.4 2.8 6.4 0 7.7-0.4 11.5-3.1 2.4-1.7 5.4-4.9 6.6-7.2l2.3-4.2c-9 0-9.8 0.3-12.3 3.5-1.5 1.9-4 3.7-5.5 4-1.5 0.4-4.3 0.2-6.2-0.4-2.2-0.7-4.6-2.5-6.3-4.8-1.5-2.1-3-5.6-3.4-7.8-0.3-2.2-0.3-6.1 0.1-8.5 0.4-2.7 1.8-6 3.4-7.9 2.3-2.9 3.5-3.5 8.4-4 5.5-0.6 5.7-0.6 9.2 3.1 3 3.1 4.3 3.8 7.6 3.8 2.5 0 4-0.5 4-1.3 0-0.7-0.9-2.7-2-4.5-1.1-1.8-3.7-4.4-5.8-5.8-2.6-1.7-5.5-2.7-9.7-3-3.9-0.3-7.4 0-10 1zm180.5 23.3v24.3h8.5v-16.5l8-0.7c7 12.7 9.4 16.6 10 16.8 0.5 0.3 2.9 0.3 5.2 0.1l4.2-0.2c-7.7-12.8-9.9-17-9.9-17.5 0-0.6 0.5-1 1.2-1 0.7 0 2.5-1.2 4-2.8 1.6-1.5 3.3-4.7 3.8-7 0.6-2.7 0.6-5.6 0.1-8-0.6-2.2-2.4-5.1-4.5-7-2-1.8-4.6-3.5-5.9-3.7-1.2-0.3-7.3-0.6-13.5-0.8l-11.2-0.2zm42.7-20.7l-0.2 3.8 14 0.6 0.5 40.5h8l0.5-40.5 14.5-0.5v-7c-26-0.1-34.3-0.3-35.3-0.5-1.4-0.2-1.8 0.5-2 3.6zm67.3 20.7v24.2h9v-20l21.3-0.5v-7l-21.3-0.5v-13h23v-7l-32-0.5zm44.2-24.1l-4.2 0.4v48h9c0-38-0.1-49-0.3-48.9-0.1 0.1-2.1 0.4-4.5 0.5zm30.8 0.3c-1.4 0.4-4.1 1.6-6 2.8-1.9 1.1-4.9 4-6.5 6.3-2.9 4.1-3 4.8-3 14.5 0 9.6 0.1 10.3 3 14.4 1.6 2.4 4.8 5.5 6.9 7 2.9 1.8 5.6 2.7 10 3 4.9 0.3 7-0.1 11-2 3.1-1.5 6.1-4 7.8-6.4 1.6-2.2 2.8-4.6 2.8-5.3 0-0.8-1.5-1.2-4.3-1.2-3.6 0-4.7 0.6-7.4 3.7-2.9 3.5-3.4 3.7-8.5 3.6-4.8-0.1-5.6-0.4-8.6-3.7-1.8-2-3.7-5.6-4.3-7.9-0.6-2.3-0.8-6-0.4-8.2 0.4-2.2 1.7-5.7 3.1-7.8 1.3-2.1 3.5-4.2 4.9-4.7 1.4-0.6 4.3-1 6.5-1 2.4 0 4.7 0.6 5.8 1.7 0.9 1 2.3 2.7 2.9 3.8 0.9 1.6 2 1.9 5.5 1.6 2.3-0.1 4.4-0.5 4.5-0.7 0.2-0.2-0.3-1.7-1.1-3.2-0.8-1.5-2.9-4.2-4.8-6-1.9-1.8-5.2-3.7-7.6-4.2-2.3-0.6-5.5-1-7-1-1.5 0.1-3.8 0.5-5.2 0.9zm40.5 0l-4 0.6-0.5 47.5h9c0-38-0.1-49-0.3-48.9-0.1 0.1-2 0.4-4.2 0.8zm66.7 0c-0.3 0.2-0.5 11.1-0.4 24.2l0.2 23.9h30v-8h-21v-40.5c-6.3 0-8.4 0.1-8.8 0.4zm-854.2 24.1v24h9v-48h-9zm161.5 0v24h30.5v-8l-21.5-0.5-0.5-39.5h-8.5zm112.9 0l0.1 24h32.5v-8l-23.5-0.5v-12h21.5v-7.5l-21.5-0.5v-12l23.5-0.5v-7h-32.7zm144.6 0v24h9v-48h-9zm32.1-17.8c-1 3.4-4.7 14.1-8 23.8-3.4 9.6-6.1 17.6-6.1 17.7 0 0.1 2.2 0.3 5 0.3h5l2.6-11.5 18.9-0.7 3 12.2h10.5c-1.7-4.3-4.9-13.2-8.3-22.5-3.3-9.4-6.6-19-7.4-21.3l-1.3-4.2h-12zm71.2 0.4c-1.2 3.7-4.9 14.6-8.2 24.1l-6.1 17.2c8.9 0 10.1-0.4 10.4-1.7 0.3-1 1-3.7 1.5-6l1.1-4.3h19l2.6 11.5c10.4 0.7 10.8 0.5 10.1-1.1-0.5-1.1-3.6-9.5-6.9-18.9-3.4-9.3-6.8-19.2-7.8-22l-1.7-5-12-0.6zm128.8 17.3v24h9v-48h-8.9zm164.1-17.7c-1.1 3.4-4.7 14.1-8.1 23.7-3.3 9.6-6.1 17.6-6.1 17.8 0 0.1 2.2 0.2 4.8 0.2h4.7l3.5-12h18l3.5 11.5 10.5 0.5c-3.1-8.1-7.1-18.9-10.8-29.2l-6.7-18.8h-11.4z"/>
		<path id="Path 3" class="s3" d="m155 30.1c-2.5 0.4-7.7 2.1-11.5 3.6-3.8 1.6-9.7 4.7-12.9 6.8-3.3 2.2-7.6 5.9-9.5 8.3-2 2.4-4.7 6.4-6.1 8.9-2.3 4.3-3 4.8-9 6.4-3.6 1-9.2 3.3-12.5 5.1-3.3 1.8-8.6 5.8-11.9 8.8-3.2 3-7.1 7.3-8.6 9.5-1.5 2.2-4.3 7.2-6.3 11-1.9 3.8-4.2 10.4-5.1 14.5-0.8 4.1-2.3 9.3-3.3 11.5-1 2.3-3.8 6.1-6.1 8.5-2.4 2.5-5.6 6.3-7.2 8.5-1.5 2.2-4.1 6.7-5.8 10-1.6 3.3-3.8 8.7-4.8 12-1.2 4.2-1.7 9.1-1.7 16.5 0 6 0.7 12.9 1.6 16 1.1 4 1.2 6 0.4 7.5-0.6 1.1-2.4 5.8-4 10.5-2.1 6.3-3.1 11.1-3.5 18.5-0.3 6.2 0 12.5 0.7 16.5 0.7 3.6 2.8 9.8 4.7 13.7 2.3 5 5.5 9.4 9.9 14l6.6 6.8c-0.1 13.2 0.5 19.9 1.3 23.5 0.7 3.6 3 9.8 5 13.7 2 4.1 6.2 10.1 9.5 13.5 3.2 3.5 8.7 8.2 12.2 10.5 3.5 2.3 9.6 5.4 13.4 6.8 4.7 1.8 9.8 2.8 15.5 3.1 4.7 0.3 9.4 0.7 10.5 0.9 1.2 0.3 3.2 2.7 5 6.1 1.7 3.3 5.4 7.8 8.5 10.6 3 2.7 8.2 6.2 11.5 7.8 3.3 1.6 8 3.3 10.5 3.9 2.5 0.6 8.1 1.1 12.5 1.1 4.6 0 10.4-0.7 13.5-1.6 3-0.9 8-2.9 11-4.4 3-1.5 7.7-4.7 10.3-7.1 2.9-2.6 6.1-6.8 7.8-10.4l2.9-6v-299c-3.7-7.8-7-12.1-9.9-14.8-2.8-2.6-7.9-6-11.4-7.7-3.4-1.6-8.7-3.4-11.7-4-3-0.6-8.2-1-11.5-0.9-3.3 0.1-8 0.5-10.5 1z"/>
		<path id="Path 4" class="s4" d="m37.2 601.9c-0.3 0.2-0.5 3.7-0.4 7.8l0.2 7.3 886.2-0.5-0.2-14.5c-686-0.4-885.4-0.3-885.8-0.1z"/>
		<path id="Path 5" class="s5" d="m321.6 437.3c-0.3 0.7-0.3 10.7-0.2 22.2l0.1 21 0.5-43.5 11.5-0.6c-9.7-0.3-11.7 0-11.9 0.9zm488-0.1c-0.2 0.7-0.3 10.8-0.2 22.3l0.1 21 0.5-43.5h6l0.6 43.5-0.1-44c-5.2-0.5-6.6-0.1-6.9 0.7zm118.8 21.3c0 12.1 0.2 16.8 0.3 10.5 0.2-6.3 0.2-16.2 0-22-0.1-5.8-0.3-0.6-0.3 11.5zm-811 0c0 11.5 0.2 16.1 0.3 10 0.2-6.1 0.2-15.5 0-21-0.1-5.5-0.3-0.6-0.3 11zm83.6-2.8c1.9 0.2 5.3 0.2 7.5 0 2.2-0.2 0.6-0.4-3.5-0.4-4.1 0-5.9 0.2-4 0.4zm590.5 2l10 0.4c0 4.6 0 4.4 0 2.7v-3.3l-19.9-0.1zm-576.6 2c0.1 0.9-2.6 1.3-9.7 1.5l-9.7 0.2c14.8 0.5 19.1 0.2 19.8-0.4 0.6-0.5 0.8-1.4 0.4-1.8-0.4-0.4-0.8-0.2-0.8 0.5zm305.1 2c2.4 0.2 6.7 0.2 9.5 0 2.7-0.2 0.7-0.4-4.5-0.4-5.3 0-7.5 0.2-5 0.4zm465 0c3 0.2 7.5 0.2 10 0 2.4-0.2 0-0.4-5.5-0.4-5.5 0-7.6 0.2-4.5 0.4zm-782 13c3 0.2 7.5 0.2 10 0 2.4-0.2 0-0.4-5.5-0.4-5.5 0-7.6 0.2-4.5 0.4zm-159.8 39.9l4.8 0.4 0.5 47.5v-48l-10-0.2zm17.1 23.8c0 13.8 0.2 19.6 0.4 13 0.1-6.6 0.1-17.8 0-25-0.2-7.1-0.4-1.7-0.4 12zm144.4-23.8l4.2 0.3 0.6 38.5-0.1-39-8.8-0.2zm124.4 0.1l16.7 0.3v7l-23.5 0.5v11.5l0.5-11 23.5-0.5v-8l-34-0.1zm58.2 14.8c0 8.8 0.2 12.1 0.3 7.5 0.2-4.7 0.2-11.9 0-16-0.1-4.2-0.3-0.3-0.3 8.5zm5.3-14.9l3.3 0.4 0.5 47.5v-48c-6.9-0.2-6.9-0.2-3.8 0.1zm207.7 23.9c0 13.7 0.2 19.6 0.3 13 0.2-6.6 0.2-17.9 0-25-0.1-7.2-0.3-1.8-0.3 12zm6.1-23.8c2.7 0.2 7.5 0.2 10.5 0 3-0.2 0.8-0.4-5-0.4-5.8 0-8.3 0.2-5.5 0.4zm57.2 0l17.3 0.3v7l-14.5 0.5v40.5l0.5-40 14.5-0.5 0.5-8.5-35.5 0.4zm53.2 0c3.1 0.1 10.3 0.4 16.2 0.5 5.9 0.2 10.5 0 10.3-0.5-0.3-0.4-7.5-0.6-16.2-0.5-8.7 0.1-13.3 0.3-10.3 0.5zm-516.5 24.3c0 12.9 0.1 18.1 0.3 11.5 0.2-6.6 0.2-17.2 0-23.5-0.2-6.3-0.3-0.9-0.3 12zm621.9-15.5c0 4.4 0.2 6 0.4 3.5 0.2-2.5 0.2-6.1 0-8-0.2-1.9-0.4 0.1-0.4 4.5zm-705.6-0.8l7.2 0.3 0.5 40v-40.5l-15-0.2zm16.8 0.6c-0.2 0.8-0.3 9.6-0.2 19.8l0.2 18.5 0.5-38.5 14.5-0.6c-12.5-0.4-14.7-0.1-15 0.8zm39.5-0.5c3.6 0.2 9 0.2 12 0 3-0.2 0.1-0.4-6.5-0.4-6.6 0.1-9.1 0.2-5.5 0.4zm476.7-0.1l7.3 0.4 0.5 40v-40.5l-15-0.2zm172.6 15.8c0 3.9 0.2 5.2 0.4 3 0.2-2.2 0.2-5.3 0-7-0.3-1.6-0.4 0.2-0.4 4zm-634.6-0.4l0.2 3.9-18.5 0.6 19.5 0.4c0.2-6.1-0.1-8-0.6-8.3-0.5-0.3-0.7 1.3-0.6 3.4zm134.5 5.3c-0.4 0.8-0.4 3.6-0.1 6.3l0.5 4.8 0.3-11.5 15.5-0.6c-13.5-0.3-15.7 0-16.2 1zm287.1 11.1c0 4.4 0.2 6 0.4 3.5 0.2-2.4 0.2-6 0-8-0.2-1.9-0.4 0.1-0.4 4.5z"/>
		<path id="Path 6" class="s6" d="m444.5 122.3c-0.3 0.6-0.4 26.4-0.3 57.2l0.3 56c0.8-88.7 0.9-114.5 0.7-114.5-0.1 0-0.5 0.6-0.7 1.3zm132.8-0.6l7.7 0.3 0.5 113.5v-114l-15.9-0.1zm163.5 15.3l0.2 16-27.5 0.6 28-0.1c0.4-24 0.2-31.3-0.2-31.7-0.5-0.4-0.7 6.5-0.5 15.2zm-133.3 3.9c0 10.2 0.3 12.5 1.5 12.8q1.6 0.5 0.3-0.4c-0.8-0.5-1.3-4.9-1.5-12.8l-0.4-12zm22.1 12.8c2.2 0.2 6 0.2 8.5 0 2.4-0.2 0.6-0.4-4-0.4-4.7 0-6.7 0.2-4.5 0.4zm66 0c1.6 0.2 4.8 0.2 7 0 2.2-0.2 0.8-0.4-3-0.4-3.9 0-5.7 0.2-4 0.4zm172.1 103c-0.2 0.4 14 0.7 31.7 0.5 24.9-0.2 32.3 0 33 1 0.6 0.9 0.7 0.8 0.4-0.2-0.3-1.3-5-1.6-32.5-1.8-17.7-0.1-32.3 0.1-32.6 0.5zm94.9 35.3l-19 0.5c30.4 0.4 37.6 0.1 37.9-0.5 0.3-0.6 0.4-0.9 0.3-0.8-0.1 0.1-8.8 0.5-19.2 0.8zm-297 0.7c4.9 0.2 13.2 0.2 18.5 0 5.2-0.2 1.1-0.3-9-0.3-10.2 0-14.5 0.1-9.5 0.3zm107.5 0c4.6 0.2 12.5 0.2 17.5 0 4.9-0.2 1.1-0.3-8.5-0.3-9.7 0-13.7 0.1-9 0.3zm54.5 0c4.9 0.2 13.2 0.2 18.5 0 5.2-0.2 1.1-0.3-9-0.3-10.2 0-14.5 0.1-9.5 0.3zm-700.1 144.6c-0.3 0.7-0.3 5.3-0.2 10.2l0.3 9 0.5-19.5 7.5-0.7c-6.2-0.3-7.8 0.2-8.1 1zm279.1-0.1c-0.2 0.7-0.3 10.8-0.2 22.3l0.2 21 0.5-43.5 20.5-0.6c-17.9-0.4-20.7-0.1-21 0.8zm214-0.4c-0.4 0.4-0.6 7.5-0.6 15.7 0 8.2 0.2 15.2 0.5 15.5 0.4 0.2 0.6-6.6 0.6-15.3v-15.7l7.5-0.7c-5.8-0.3-7.7 0-8 0.5zm313-0.1c2.7 0.2 7.4 0.2 10.5 0 3-0.2 0.7-0.4-5-0.4-5.8 0-8.3 0.2-5.5 0.4zm39 0.5c-0.2 0.7-0.3 11-0.2 22.8l0.2 21.5h27.5l-27-0.5v-44l15.5-0.6c-13.4-0.4-15.7-0.1-16 0.8zm-784.1 22.3l0.1 22c7.4 0 7.4 0 4-0.3l-3.5-0.2-0.6-43.5zm298.9 7c0 8.2 0.2 11.4 0.4 7 0.2-4.4 0.2-11.2 0-15-0.2-3.9-0.4-0.3-0.4 8zm-111.9 3.2c2.2 0.2 6.1 0.2 8.5 0 2.5-0.2 0.7-0.4-4-0.4-4.6 0-6.7 0.2-4.5 0.4zm507 0c2.8 0.2 6.8 0.2 9 0 2.2-0.2 0-0.4-5-0.4-4.9 0-6.7 0.2-4 0.4zm-367.5 12c3.6 0.2 9.9 0.2 14 0 4.2-0.2 1.2-0.3-6.5-0.3-7.7 0-11 0.1-7.5 0.3zm-415 56.6l0.5 25.2c0.4-38 0.2-49.4-0.2-49.7-0.4-0.4-0.5 10.6-0.3 24.5zm-10.2-9.3c-0.1 8.2 0.1 15 0.5 15 0.4 0 0.7-6.8 0.7-15 0-8.3-0.2-15-0.4-15-0.3 0-0.6 6.7-0.8 15zm151.7 9c0 13.4 0.1 18.8 0.3 12 0.1-6.9 0.1-17.9 0-24.5-0.2-6.6-0.3-1-0.3 12.5zm457.8 0.2c-0.2 18.8-0.6 24.9-1.5 25.2-1 0.3-1 0.4 0 0.5 0.7 0 1.5-0.5 1.7-1.2 0.3-0.7 0.4-12 0.3-25.2l-0.3-24zm60.8 0.4c-0.3 13.9-0.2 24.9 0.2 24.5 0.4-0.4 0.6-11.7 0.5-25.2l-0.2-24.5zm-302.6 0.6l0.1 24.2c6.2 0 6.2 0 3.5-0.2l-3-0.3-0.6-48zm232-0.2c0 13.4 0.1 18.8 0.3 12 0.2-6.9 0.2-17.9 0-24.5-0.2-6.6-0.3-1-0.3 12.5zm132 0c0 13.4 0.1 18.8 0.3 12 0.2-6.9 0.2-17.9 0-24.5-0.2-6.6-0.3-1-0.3 12.5zm-570 0.5c0 13.2 0.1 18.3 0.3 11.5 0.2-6.9 0.2-17.7 0-24-0.2-6.4-0.3-0.7-0.3 12.5zm215.9-12c0 6.6 0.2 9 0.4 5.5 0.2-3.6 0.2-9 0-12-0.2-3.1-0.4-0.1-0.4 6.5zm283.1 12c0 13.2 0.1 18.3 0.3 11.5 0.2-6.9 0.2-17.7 0-24-0.2-6.4-0.3-0.7-0.3 12.5zm80.9-11.5c0 6.8 0.2 9.5 0.4 6 0.2-3.6 0.2-9.2 0-12.5-0.2-3.3-0.4-0.4-0.4 6.5zm-111.1-4.7c-0.4 0.8-0.4 3.6-0.2 6.3l0.6 4.9 0.3-11.5 22.5-0.6c-20-0.4-22.7-0.1-23.2 0.9zm6.7 11.4c3.1 0.2 7.6 0.2 10 0 2.5-0.2 0-0.4-5.5-0.4-5.5 0-7.5 0.2-4.5 0.4zm-6.5 9.6c-0.3 0.7-0.4 4.9-0.2 9.3l0.3 7.9 0.4-17.5 21.5-0.6c-19-0.4-21.6-0.1-22 0.9zm-253.1 8.7c0 5.2 0.2 7.2 0.4 4.5 0.2-2.8 0.2-7.1 0-9.5-0.2-2.5-0.4-0.3-0.4 5z"/>
		<path id="Path 7" class="s7" d="m224.5 205c0 89.9 0.1 126.6 0.2 81.5 0.2-45.1 0.2-118.7 0-163.5-0.1-44.8-0.2-7.9-0.2 82zm-14 0.5c0 80.9 0.1 113.7 0.2 73 0.2-40.7 0.2-106.8 0-147-0.1-40.2-0.2-6.8-0.2 74zm246-83.8c2.8 0.2 6.8 0.2 9 0 2.2-0.2-0.1-0.3-5-0.3-4.9 0-6.8 0.1-4 0.3zm101 0c2.2 0.2 6 0.2 8.5 0 2.5-0.2 0.7-0.4-4-0.4-4.7 0-6.7 0.2-4.5 0.4zm49.7 0.8c-0.4 0.8-0.3 1.9 0.1 2.3 0.4 0.4 0.7-0.1 0.7-1.1 0-1.6 3.6-1.7 58.8-2l58.7-0.2c-110.4-0.5-117.6-0.3-118.3 1zm166.3-0.8c5 0.2 12.6 0.2 17 0 4.4-0.1 0.4-0.3-9-0.3-9.4 0-13 0.2-8 0.3zm112.5 0c4.1 0.2 13.9 0.4 21.7 0.5 7.7 0.2 13.9 0 13.7-0.5-0.2-0.4-10-0.6-21.7-0.5-11.6 0.1-17.8 0.3-13.7 0.5zm-491.6 87.3c0 5.2 0.1 7.3 0.3 4.5 0.2-2.7 0.2-7 0-9.5-0.2-2.5-0.3-0.2-0.3 5zm-356.9 228.3c-0.2 0.7-0.3 8.5-0.2 17.2l0.3 16 0.4-33.5 7.5-0.7c-6.1-0.2-7.7 0.2-8 1zm30.2-0.6l3.3 0.3 0.5 33v-33.5c-6.9-0.2-6.9-0.2-3.8 0.2zm120.9 0c-0.2 0.5 3.9 0.7 9.2 0.5 5.4-0.1 11.9-0.4 14.7-0.5 2.7-0.2-1.4-0.4-9.2-0.5-7.8-0.1-14.4 0.1-14.7 0.5zm43.4 0c2.5 0.2 6.7 0.2 9.5 0 2.7-0.2 0.7-0.3-4.5-0.3-5.2 0-7.5 0.1-5 0.3zm72.6 0.6c-0.3 0.7-0.3 10.7-0.2 22.2l0.1 21 0.5-43.5 7.5-0.7c-6.1-0.2-7.7 0.2-7.9 1zm172.4-0.6c4.7 0.2 11.9 0.2 16 0 4.1-0.1 0.3-0.3-8.5-0.3-8.8 0-12.2 0.2-7.5 0.3zm45.7 0l14.3 0.3c0.5 5.8 0.5 5.8 0.5 2.8v-3.3l-29-0.1zm162.8 0.6c-0.2 0.7-0.3 10.9-0.2 22.7l0.2 21.5 0.4-44.5 5.5-0.7c-4.3-0.2-5.7 0.3-5.9 1zm6.9 18.7c0 10.2 0.1 14.2 0.3 9 0.2-5.2 0.2-13.5 0-18.5-0.2-4.9-0.3-0.7-0.3 9.5zm-582.1 1.5c0 6.1 0.2 8.3 0.4 5 0.2-3.3 0.2-8.2 0-11-0.2-2.7-0.4 0-0.4 6zm412.6-1.8c2 0.2 5.3 0.2 7.5 0 2.3-0.2 0.7-0.4-3.5-0.4-4.1 0-5.9 0.2-4 0.4zm461.5 0c2.8 0.2 6.8 0.2 9 0 2.3-0.2 0-0.3-5-0.3-4.9 0-6.7 0.1-4 0.3zm-463.5 19c3.1 0.2 7.6 0.2 10 0 2.5-0.2 0-0.3-5.5-0.3-5.5 0-7.5 0.1-4.5 0.3zm-363.5 63.8c0 13.8 0.1 19.6 0.3 13 0.2-6.6 0.2-17.8 0-25-0.2-7.1-0.3-1.7-0.3 12zm735 0.5c0 13.5 0.1 18.9 0.3 12 0.2-6.9 0.2-17.9 0-24.5-0.2-6.6-0.3-1-0.3 12.5zm-726-10.2l0.1 5.7h20.5l-20.1-0.5-0.6-11zm-97 19.3c0 8.5 0.1 11.9 0.3 7.5 0.2-4.4 0.2-11.4 0-15.5-0.2-4.2-0.3-0.6-0.3 8zm258.1-13.3c2.7 0.2 7.5 0.2 10.5 0 3-0.2 0.8-0.4-5-0.4-5.8 0-8.3 0.2-5.5 0.4zm-39 3c2.7 0.2 7.5 0.2 10.5 0 3-0.2 0.8-0.4-5-0.4-5.8 0-8.3 0.2-5.5 0.4zm542.9 13.8c0 6.6 0.1 9 0.3 5.5 0.2-3.6 0.2-9 0-12-0.2-3.1-0.3-0.1-0.3 6.5zm-665-2.8l0.1 5.8h23l-22.5-0.5-0.7-11.1zm49.1 6c3.3 0.2 8.3 0.2 11 0 2.8-0.2 0.1-0.3-6-0.3-6 0-8.3 0.1-5 0.3zm113.5 0c3.6 0.2 9 0.2 12 0 3-0.2 0.1-0.3-6.5-0.3-6.6 0-9.1 0.1-5.5 0.3zm578 0c3 0.2 8.2 0.2 11.5 0 3.3-0.2 0.8-0.3-5.5-0.3-6.3 0-9 0.1-6 0.3z"/>
		<path id="Path 8" class="s8" d="m260 601.7c121.8 0.2 320.7 0.2 442 0 121.3-0.1 21.6-0.2-221.5-0.2-243.1 0-342.3 0.1-220.5 0.2z"/>
		<path id="Path 9" fill-rule="evenodd" class="s0" d="m165.8 48c5.6 0 8.5 0.6 12.9 2.6 3.2 1.4 6.7 3.3 7.7 4.2 1 0.9 2.9 3.9 6.6 11.7v280l-2.7 5.5c-2.1 4-4.1 6.4-7.8 8.8-2.8 1.8-7.5 4-10.5 4.9q-5.5 1.5-10 0.8c-2.5-0.4-7.2-2-10.5-3.5-3.3-1.5-7.4-4.1-9.1-5.6-1.7-1.6-4.1-4.9-5.4-7.4-1.7-3.3-2.3-6.2-2.3-11-0.1-4.7 0.6-7.9 2.2-11.5 1.4-3 4.6-7.2 8.1-10.5 5.2-4.8 5.9-6 6-9.3 0-2.8-0.7-4.4-3-6.7-2.1-2.1-4-3-6.3-3-1.8 0-5.1 1.2-7.7 2.9-2.5 1.5-5.7 4.1-7.2 5.7-1.5 1.6-4.2 5.8-6.1 9.4-1.8 3.6-4.1 9.8-5 13.8-1.5 6.3-2 7.2-4 7.2-1.2 0-5.8-0.9-10.2-2-4.4-1.2-10-3.3-12.5-4.7-2.5-1.5-6.5-4.8-9-7.4-2.5-2.5-5.8-7.1-7.3-10-1.5-3-3.3-8.4-4-12.1-0.7-3.7-1-7-0.7-7.3 0.3-0.3 3.2-0.1 6.5 0.5 3.3 0.5 8.9 1 12.5 1 3.6 0 8.4-0.5 10.7-1 2.4-0.6 5.7-2 7.4-3.3 1.7-1.2 4-3.9 5-6 1-2 3.9-5.7 6.4-8.2 2.5-2.5 7.1-5.7 10.2-7.1 3.8-1.8 8.2-2.8 12.8-3.2 5.7-0.4 7.9-0.1 12 1.7 2.7 1.2 6.5 2.1 8.3 2.1 2.4 0 4.2-0.9 6.3-3 2.1-2.2 2.9-4 2.9-6.5 0-1.9-0.5-4.4-1-5.5-0.6-1.1-2.7-2.8-4.8-3.9-2-1-6.2-2.4-9.2-3.2-3-0.7-8.7-1.3-12.5-1.2-3.9 0-9.9 0.8-13.5 1.8-3.6 0.9-9.2 3.1-12.5 4.8-3.3 1.8-8.7 5.9-12.1 9.2-3.3 3.3-6.9 7.3-8 8.8-1.5 2.4-2.8 3-6.9 3.4-2.8 0.3-8.2 0-12-0.8-4.9-0.9-8.7-2.4-12.8-5.1-3.1-2.1-7.4-5.9-9.5-8.6-2.1-2.6-4.9-7.9-6.2-11.7-1.6-4.9-2.4-9.3-2.4-14.5 0-4.1 0.5-9.2 2.4-15l6.7 5c4.5 3.2 9.9 6 15.8 8.1 8.7 3 9.4 3.1 22 2.7 11.1-0.4 14-0.9 20-3.2 3.8-1.5 8-3.4 9.2-4.2 1.3-0.8 3-3 3.8-4.9 1.3-3.1 1.3-3.9 0-6.8-0.8-1.7-2.5-3.7-3.7-4.4-1.3-0.6-3.2-1.4-4.3-1.7-1.1-0.3-4.5 0.6-7.5 2-3 1.4-8.7 3-12.5 3.6-5 0.7-8.8 0.7-13.5-0.1-3.6-0.6-9-2.3-12-3.8-3-1.5-7.5-4.5-9.9-6.8-2.4-2.2-5.7-6.7-7.4-10-2.9-5.5-3.1-6.8-3.1-15.5 0-8.3 0.4-10.5 3.2-17.5 1.8-4.4 4.7-9.8 10.1-16l6.3 6.2c3.5 3.3 8.5 7.5 11.3 9.2 2.7 1.8 8.5 4.3 12.7 5.6 4.3 1.4 9.9 2.5 12.5 2.5 2.7 0 8.4-0.7 12.8-1.6 4.8-1 9.6-1.3 12-0.9 2.2 0.3 6 1.5 8.5 2.6 2.5 1.1 6 3.4 7.8 5.2 1.9 1.8 4 4.8 4.8 6.7 0.8 1.9 1.4 4.3 1.4 5.2 0 1 0.7 3.1 1.5 4.8 0.8 1.7 2.5 3.5 3.7 4.1 1.3 0.7 3.9 1.1 5.8 1.1 2.7 0 4.2-0.8 6.4-3.4 2.6-3 2.9-3.8 2.4-8.8-0.3-3.6-1.7-7.9-4.1-12.5-2-3.8-5.6-8.9-7.9-11.2-2.4-2.3-7-5.8-10.3-7.7-3.6-2.2-9-4.3-13.5-5.3-7-1.5-8.2-1.5-19 0.2-9.6 1.5-12.4 1.6-17 0.7-3-0.7-7.6-2.5-10.3-4.2-2.6-1.6-6.3-5.1-11.8-12.5l0.4-10.5c0.3-9.4 0.6-11.1 3.4-16.5 1.7-3.3 5.1-8.1 7.7-10.8 2.5-2.6 7.3-6 10.6-7.7 3.3-1.7 6.2-2.9 6.4-2.8 0.2 0.2 0.9 2.7 1.5 5.5 0.6 2.9 2.3 7.7 3.8 10.5 1.4 2.9 4.7 7.5 7.2 10.2 2.5 2.6 7.1 6.3 10.1 8.1 3 1.8 8 4 11 4.9 3.1 0.9 8.7 1.6 13 1.6 4.1-0.1 9.1-0.6 11-1.3 2.3-0.8 4.2-2.4 5.4-4.7 1.8-3.2 1.8-3.8 0.5-6.9-0.8-1.9-2.5-4.1-3.9-5-1.7-1.1-5.1-1.6-10.5-1.6-6.1-0.1-9.2-0.6-13-2.3-2.8-1.3-6.5-3.7-8.4-5.5-1.8-1.8-4.4-5.5-5.7-8.2-1.3-2.8-2.4-6.3-2.4-8 0.1-1.7 0.9-4.3 1.9-6 1.1-1.7 2.2-4.8 2.6-7 0.5-2.6 2-5.3 4.4-7.8 2-2.1 4.9-4.7 6.6-5.7 1.6-1.1 5.5-2.8 8.5-3.9 3.5-1.3 8.1-2 12.7-2.1zm100.1 15c10.6 0 15.1 0.3 16 1.2 0.9 0.9 1.2 5.1 1.2 14.3 0 10.9-0.3 13.3-1.8 14.8-1 1.1-3.1 1.8-9.2 1.7v52l13.2 14.2c7.3 7.8 15.5 16.6 23.3 24.9l26.5-0.1v-4.3c0-2.3 0.5-4.8 1.2-5.5 0.8-0.8 5.1-1.2 14-1.2 7 0 13.7 0.4 14.8 1 1.9 0.9 2 2 2 14.8 0 9.4-0.3 14.1-1.2 14.9-0.8 0.9-5.4 1.3-15.5 1.3-11.8 0-14.4-0.3-14.8-1.5-0.3-0.8-0.5-3.3-0.5-9.5h-25.5l-4.9 5.7c-2.7 3.2-5.7 6.4-6.7 7-1.1 0.7-1.9 2-1.9 2.8 0 0.8 6 8 26.5 30.4h13.2c9.6 0.1 13.5 0.5 14 1.4 0.3 0.6 0.6 7.3 0.6 14.7 0.1 7.4-0.2 14.1-0.6 14.8-0.5 0.9-4.6 1.2-15.2 1.2-8.7 0-14.7-0.4-15-1-0.3-0.6-5.1-1-22-1l-8.5 6.7c-4.8 3.8-10.4 8.4-16.8 13.8l-0.7 27.5h3.5c1.9 0 4.5 0.7 5.7 1.5 2.2 1.4 2.3 2.1 2.3 15 0 12.9-0.1 13.6-2.3 15-1.7 1.1-5.2 1.5-14.5 1.5-6.7 0-13.1-0.4-14.2-1-1.9-0.9-2-2-2-15 0-11.4 0.3-14.3 1.6-15.5 0.9-0.9 3.4-1.5 10.4-1.5l0.5-31.5 14.5-12.2c8.4-7 16-12.6 18-13.2 1.9-0.6 7.9-1.1 23-1.1l-0.1-11.5-8.3-9c-4.6-4.9-11.3-12.1-21.1-22.7l-6 2.8c-5.4 2.6-6.1 3.3-7 9.9l-30.5 0.5-0.6-3.3c-0.3-1.7-0.4-8.5-0.2-15 0.2-9.1 0.6-12 1.8-12.7 0.8-0.5 7.3-1 14.5-1 9.2 0 13.4 0.3 14.3 1.2 0.7 0.7 1.2 3.6 1.2 6.5 0 4.8 0.2 5.3 2.2 5.3 1.5-0.1 5.8-3.6 23.3-20.8l-15-15.9c-8.3-8.7-17.1-18.2-24.5-26.3v-55h-4.8c-2.6 0-5.3-0.5-6-1.2-0.9-0.9-1.2-5.2-1.2-14.6 0-7.2 0.3-13.9 0.6-14.7 0.5-1.2 3.1-1.5 15.2-1.5zm54.6 46c10.1 0 14.5 0.3 15.4 1.2 0.9 0.9 1.2 5.3 1.3 14.8 0 9.8-0.4 13.9-1.3 14.8-0.9 0.9-5.2 1.2-15.3 1.2q-14-0.1-15.3-1.3c-0.7-0.7-1.3-2.9-1.2-8.7h-9c-8.5 0-9-0.1-9.6-2.3-0.3-1.2-0.3-3.2 0-4.5 0.6-2 1.2-2.2 18.1-2.7l0.2-5c0.2-2.7 0.8-5.5 1.4-6.2 0.8-0.9 5.1-1.3 15.3-1.3zm579.5 53.5c0.5 0.6 4.1 10.7 8.1 22.5 4 11.8 8.8 25.8 10.6 31 1.9 5.2 3.4 9.8 3.4 10.2 0 0.5-9.9 0.8-44 0.8l0.4-2.3c0.2-1.2 4.8-14.8 10.1-30.2 5.4-15.4 9.9-29.1 10.2-30.5 0.3-1.4 0.8-2.1 1.2-1.5zm-164.4 280.1c0.5 0.1 2.2 0.5 3.8 0.8 2 0.5 3.3 1.9 5.2 5.6 1.6 3.1 2.5 6.7 2.5 9.5 0 2.5-0.6 5.7-1.4 7.2-0.7 1.6-2.7 4-4.5 5.5-2.2 2-4.1 2.8-6.8 2.8-3-0.1-4.5-0.9-7.4-3.8-2.6-2.7-3.8-5-4.4-8.2-0.4-2.5-0.3-6.3 0.1-8.5 0.4-2.2 2-5.4 3.6-7.2 1.6-1.7 4.1-3.3 5.6-3.5 1.5-0.2 3.2-0.3 3.7-0.2zm-501.5 0.4h5.3c3 0 6.2 0.6 7.5 1.5 1.7 1.1 2.2 2.5 2.2 5.5 0 2.3-0.7 4.6-1.6 5.5-1 1-3.6 1.5-13.4 1.5zm95 0h5.8c3.9 0 6.7 0.6 9 2 1.7 1.1 3.9 3.7 4.8 5.7 1.2 2.8 1.5 5.4 1.1 9.8-0.5 5-1.1 6.5-3.7 9-2.6 2.6-4 3.1-9.6 3.5-3.6 0.3-6.8 0.3-7 0-0.3-0.3-0.4-7.1-0.4-15.3zm92.4 0.4c3.6 0.3 7.1 1.3 8.6 2.4 1.3 1.1 3.1 3.2 3.9 4.8 0.8 1.6 1.4 5.4 1.4 8.4 0 3.2-0.7 6.9-1.7 8.8-0.9 1.8-3 3.9-4.6 4.7-1.7 0.9-5.6 1.6-14.5 1.6l0.2-15.3c0.1-8.4 0.3-15.4 0.4-15.6 0.1-0.3 2.9-0.2 6.3 0.2zm235.2-0.4c3.4 0 5 0.7 7.2 2.8 1.6 1.5 3.4 4.5 4 6.7 0.7 2.2 1.2 4.9 1.2 6 0 1.1-0.5 3.8-1.2 6-0.6 2.2-2.4 5.3-3.9 6.8-2.2 2.2-3.7 2.8-7.6 2.8-4 0-5.3-0.5-7.6-2.8-1.5-1.5-3.1-4.3-3.7-6.3-0.6-1.9-1-5.1-1-7.2 0-2.1 0.6-5.2 1.3-7 0.7-1.8 2.6-4.3 4.1-5.5 2-1.6 4.2-2.3 7.2-2.3zm279.7-0.2l6.6 0.5c6 0.5 6.9 0.9 9.8 4.2q3.3 3.5 3.9 7.8c0.3 2.3 0.1 6-0.5 8.2-0.6 2.2-2.3 5.3-3.8 6.8-2.3 2.3-4.1 3-16.3 4.2zm-49.9 2.2l2.8 8.3c1.5 4.6 2.8 8.7 2.8 9.1 0 0.4-2.5 0.7-5.5 0.7-4.8 0-5.5-0.2-5.1-1.7 0.2-1 1.4-5.1 2.7-9.1zm-506.2 0.6l2.8 7.5c1.6 4.1 2.9 8.1 2.9 8.8 0 0.8-1.7 1.2-5.4 1.2-3.1 0-5.6-0.2-5.8-0.4-0.1-0.3 1.1-4.2 2.7-8.8zm230 77.3l6.6 0.5c5.4 0.5 6.9 1 8.4 2.9 1 1.3 1.8 3.6 1.7 5.1 0 1.8-0.9 3.4-2.7 4.8-2.1 1.5-4.3 2-14.3 1.9zm-112.3 4c0.3 0.3 1.5 3.5 2.7 7.2 1.2 3.6 2.2 6.9 2.3 7.3 0 0.5-2.2 0.8-5 0.8-4.3 0-4.9-0.2-4.4-1.8 0.3-0.9 1.3-4.5 2.2-7.9 0.9-3.4 1.9-5.9 2.2-5.6zm76.6 14.8l-5.1 0.3c-2.7 0.1-5.1 0.1-5.2 0-0.1-0.2 0.8-3.2 1.9-6.8 1.1-3.6 2.2-7.2 2.4-8 0.3-0.8 1.7 2.1 6 14.5zm287.1-15.2c0.1 0.1 1.3 3.3 2.7 7.2 1.5 3.8 2.6 7.3 2.6 7.7 0 0.5-2.2 0.8-5 0.8-3.5 0-4.9-0.4-4.6-1.3 0.1-0.6 1.2-4.2 2.2-7.9 1.1-3.7 2-6.6 2.1-6.5z"/>
		<path id="Path 10" class="s5" d="m328.5 443.3c-0.2 0.7-0.3 8-0.2 16.2l0.3 15 0.4-31.5 8.5-0.7c-7-0.2-8.7 0.2-9 1zm607 0c-0.2 0.7-0.3 8-0.2 16.2l0.2 15c0.8-25.2 0.9-32.5 0.7-32.5-0.1 0-0.4 0.6-0.7 1.3zm-326.1 80c-0.3 0.8-0.4 4.5-0.2 8.3l0.4 6.9 0.4-15.5 10.5-0.6c-8.9-0.3-10.7 0-11.1 0.9z"/>
		<path id="Path 11" class="s6" d="m259 62.7c3.6 0.2 9.6 0.2 13.5 0 3.9-0.2 0.9-0.3-6.5-0.3-7.4 0-10.6 0.1-7 0.3zm45.9 47c-1.3 1.6-1.2 1.7 0.4 0.6 1.1-0.8 6.8-1.4 15.5-1.6l13.7-0.3c-26.6-0.4-28.4-0.2-29.6 1.3zm-14.4 12c2.2 0.2 6 0.2 8.5 0 2.5-0.2 0.7-0.4-4-0.4-4.7 0-6.7 0.2-4.5 0.4zm22 20c3.3 0.2 8.9 0.2 12.5 0 3.6-0.2 0.9-0.3-6-0.3-6.9 0-9.8 0.1-6.5 0.3zm-15 47.1l3 3.2-7 7.5 8-7.5-7-6.5zm-44.5 44c3.6 0.2 9.7 0.2 13.5 0 3.9-0.2 0.9-0.4-6.5-0.4-7.4 0-10.6 0.2-7 0.4zm97.4 24.7c0 5.5 0.2 7.6 0.4 4.5 0.2-3 0.2-7.5 0-10-0.2-2.4-0.4 0-0.4 5.5zm-23.4 17.3c3 0.2 7.5 0.2 10 0 2.5-0.2 0-0.4-5.5-0.4-5.5 0-7.5 0.2-4.5 0.4zm-65.6 30.7c0 7.7 0.2 10.7 0.4 6.5 0.2-4.1 0.2-10.4 0-14-0.2-3.5-0.4-0.2-0.4 7.5zm153 153.5c0 8 0.2 11.4 0.4 7.5 0.2-3.8 0.2-10.3 0-14.5-0.2-4.1-0.4-0.9-0.4 7z"/>
		<path id="Path 12" class="s7" d="m249.4 78.5c0 7.7 0.2 10.6 0.3 6.5 0.2-4.1 0.2-10.4 0-14-0.2-3.6-0.3-0.2-0.3 7.5zm12 43.5c0 15.1 0.2 21.2 0.3 13.5 0.2-7.7 0.2-20.1 0-27.5-0.1-7.4-0.3-1.1-0.3 14zm75.2 52.8c-0.2 0.4 3.9 0.6 9.2 0.4 5.4-0.1 11.7-0.4 14.2-0.5 2.5-0.2-1.7-0.4-9.2-0.5-7.5-0.1-13.9 0.1-14.2 0.6zm-2.4 6l-0.2 4.2c-20.8-0.4-26.6-0.2-26.4 0.3 0.2 0.4 6.3 0.7 13.4 0.7 9.4 0 13.2-0.3 13.5-1.2 0.4-0.7 0.4-2.9 0.2-4.8-0.4-3.3-0.4-3.3-0.5 0.8zm8.3 26.9c2.7 0.2 6.8 0.2 9 0 2.2-0.2-0.1-0.3-5-0.3-4.9 0-6.8 0.1-4 0.3zm534.8 18.3c0.3 1.3 3.6 1.5 21.3 1.5l20.9 0.1c-35.1-0.6-41.2-1-41.8-1.9q-0.9-1.3-0.4 0.3zm-627.9 111c0 8 0.2 11.4 0.3 7.5 0.2-3.9 0.2-10.4 0-14.5-0.1-4.1-0.3-1-0.3 7zm10.1 16.7c3.9 0.2 9.7 0.2 13 0 3.3-0.2 0.1-0.3-7-0.3-7.1 0-9.9 0.1-6 0.3z"/>
		<path id="Path 13" class="s9" d="m193.5 207.5c0 75.4 0.1 105.9 0.2 68 0.2-37.9 0.2-99.6 0-137-0.1-37.4-0.2-6.3-0.2 69zm-89-38.8c1.7 0.2 4.8 0.2 7 0 2.2-0.2 0.8-0.4-3-0.4-3.8 0-5.7 0.2-4 0.4z"/>
		<path id="Path 14" class="s1" d="m260 78.5v6.5h12v-13h-12zm54.3 40.4c-0.4 0.2-0.6 3.1-0.5 6.3l0.2 5.8h12v-12.5c-8.6 0-11.4 0.2-11.7 0.4zm35.9 65.9l-5.3 0.3-0.4 11.9h12.5c0.2-9.2-0.2-12-0.6-12.2-0.5-0.2-3.3-0.2-6.2 0zm-96 31.3l0.3 6.1 11.5 0.3v-12.5h-12.1zm74.9 42.3l-0.1 6.6 11.5-0.5v-12l-11.4-0.6zm-69 78v6.5h12v-13h-12z"/>
		<path id="Path 15" class="s6" d="m357.2 190.8l-0.2 6.2-13.5 0.6c11.4 0.3 13.7 0 14-0.9 0.3-0.6 0.4-3.7 0.2-6.7l-0.3-5.5z"/>
		<path id="Path 16" class="s7" d="m272.3 78.5c0 3.8 0.2 5.2 0.4 3 0.2-2.2 0.2-5.3 0-7-0.2-1.7-0.4 0.2-0.4 4zm-12.6 131.2l6.3 0.3 0.6 11.5-0.1-12-13-0.2zm68.6 42.7c-0.3 0.8-0.4 4-0.2 7.3l0.5 5.9 0.3-13.5 11.5-0.7c-9.8-0.3-11.7 0.1-12.1 1zm-56 84.2c0 3.8 0.2 5.2 0.4 3 0.2-2.2 0.2-5.4 0-7-0.2-1.7-0.4 0.1-0.4 4z"/>
	</g>
</svg>